<?xml version="1.0" encoding="utf-8"?>
<!-- Generator: Adobe Illustrator 24.3.0, SVG Export Plug-In . SVG Version: 6.00 Build 0)  -->
<svg version="1.1" id="레이어_1" xmlns="http://www.w3.org/2000/svg" xmlns:xlink="http://www.w3.org/1999/xlink" x="0px"
	 y="0px" viewBox="0 0 2000 2000" style="enable-background:new 0 0 2000 2000;" xml:space="preserve">
<style type="text/css">
	.st0{fill:#7C4DFF;}
	.st1{fill:#FF4081;}
	.st2{fill:#03A9F4;}
	.st3{fill:#3F51B5;}
</style>
<g id="IENLAB_NEW_1_">
	<g id="IENLAB_COLOR_1_">
		<path class="st0" d="M607.91,481.81l-90.63,52.33v0l0,0v931.28l0,0v0l-243.01-140.3c21.14,78.35,72.5,146.51,144.65,188.17
			l98.36,56.79l90.63,52.33l0,0v-104.66l0,0V481.81z"/>
		<path class="st1" d="M607.91,377.63L419.76,486.26C347.93,527.73,296.8,595.6,275.75,673.6c-7,25.94-10.67,53-10.67,80.59v490.22
			c0,27.71,3.69,54.89,10.72,80.94l243.01,140.3v0l-53.04-30.62c-33.41-19.29-61.27-47.15-80.57-80.57
			c-19.29-33.41-29.49-71.47-29.49-110.06V754.24c0-38.35,10.14-76.18,29.31-109.39c19.18-33.21,46.87-60.91,80.08-80.08
			l52.72-30.44v0l90.09-52.01V377.63z"/>
		<path class="st2" d="M655.2,1543.89l90.63,52.33v-4.11l0,0V406.38l0,0v0l162.11-93.6l0,0l90.09-52.01V200
			c-53.41,0-106.82,13.82-154.68,41.45L655.2,350.08v105.55l0,0V1543.89z"/>
		<path class="st3" d="M1734.93,1140.91l-736.9,233.42V256.25l-90.63,52.33v6.01c0,0,0,0,0,0V1371.5v123.04l117.29-37.15
			L1636,1263.74c-3.01,31.05-12.64,61.25-28.3,88.38c-19.18,33.21-46.87,60.9-80.08,80.08l-420.75,242.92
			c-33.21,19.18-71.04,29.31-109.39,29.31c-38.35,0-76.18-10.14-109.39-29.31l-90.39-52.19v0l-142.5-82.27v108.42l189.22,109.25
			c48.13,27.79,101.85,41.68,155.56,41.68c53.72,0,107.43-13.89,155.56-41.68l85.92-49.61l337.9-195.09
			c72.24-41.71,123.66-109.96,144.83-188.4l-0.01,0.01c7.04-26.09,10.75-53.31,10.75-81.05V1140.91z"/>
		<path class="st1" d="M1483.52,747.46c-17.56-17.56-27.22-40.9-27.22-65.72c0-24.83,9.67-48.17,27.22-65.72l-64.14-64.14l0,0
			c-33.23,33.23-53.79,79.14-53.79,129.86c0,50.71,20.55,96.62,53.78,129.85l0.01,0.01L1483.52,747.46z"/>
		<path class="st3" d="M1549.24,498.09c-50.71,0-96.62,20.55-129.86,53.79l0,0l64.14,64.14l0,0c17.56-17.56,40.9-27.22,65.72-27.22
			c24.83,0,48.17,9.67,65.72,27.22c0,0,0,0,0,0l64.14-64.14C1645.87,518.65,1599.95,498.09,1549.24,498.09z"/>
		<path class="st0" d="M1679.1,811.6l-64.14-64.14l0,0c-17.56,17.56-40.9,27.22-65.72,27.22c-24.83,0-48.17-9.67-65.72-27.22
			c0,0,0,0,0,0l-64.14,64.14l0.01,0.01c33.23,33.23,79.14,53.78,129.85,53.78C1599.95,865.39,1645.87,844.83,1679.1,811.6z"/>
		<path class="st2" d="M1679.1,811.6c33.23-33.23,53.79-79.15,53.79-129.86c0-50.71-20.56-96.63-53.79-129.86l-64.14,64.14
			c17.56,17.56,27.22,40.9,27.22,65.72c0,24.83-9.67,48.17-27.22,65.72L1679.1,811.6z"/>
	</g>
</g>
</svg>
